<svg xmlns="http://www.w3.org/2000/svg" width="723.40326pt" height="300pt" viewBox="0 0 723.40325 299.99999"><path fill="#ccc" d="M551.847 212.922h-24.235v-87.08h24.235zM636.347 212.922h-24.234V87.074h24.234zM594.019 212.922h-24.236V106.455h24.236zM492.102 125.841l-14.06 49.084-14.068-49.084h-21.933l-14.067 49.084-14.061-49.084h-24.15l26.245 87.081h21.566l15.434-53.633 15.433 53.633h21.563l26.248-87.08zM233.53 194.274c-11.943 0-21.535-9.566-21.535-25.845 0-16.295 10.128-23.935 21.644-23.935 12.069 0 22.63 9.28 22.63 23.935 0 12.786-6.404 25.845-22.738 25.845m22.738-107.2v44.667c-6.778-5.357-14.538-8.428-26.45-8.428-24.287 0-42.898 18.373-42.898 45.116 0 26.744 16.978 47.021 42.898 47.021 11.912 0 19.852-4.45 26.45-10.33v7.802h24.233V87.073ZM354.514 125.841v43.69c0 20.335-11.325 24.743-19.475 24.743-11.746 0-16.444-8.8-16.444-18.217V125.84h-24.408v46.843c0 26.745 10.271 42.766 36.191 42.766 8.423 0 19.26-5.427 24.136-10.33v7.802h24.235v-87.08zM112.082 159.857c2.254-8.324 8.569-15.363 21.595-15.363 12.06 0 18.984 8.95 20.039 15.363zm63.937 9.272c0-24.69-16.51-45.914-42.342-45.914-32.934 0-46.587 25.145-46.587 47.315 0 29.997 20.264 46.453 51.16 46.453 12.322 0 22.478-2.445 33.134-5.651l-5.723-19.722c-11.128 2.474-16.908 4.097-25.462 4.097-11.805 0-25.68-2.962-28.626-17.737h63.887c.481-2.1.56-7.245.56-8.84" style="fill:#000;fill-opacity:1;stroke-width:1.42755"/><path fill="#ccc" d="M429.197 77.536c-8.012 0-29.795-.418-39.008-.928v22.958c6.433.347 22.928.96 38.74.96 99.401 0 163.306-19.571 211.881-45.922L629.148 34.74c-30.312 16.357-88.24 42.795-199.951 42.795" style="fill:#ffbf00;fill-opacity:1;stroke-width:1.42755"/></svg>