<?xml version="1.0" encoding="utf-8"?>
<!-- Generator: Adobe Illustrator 23.0.2, SVG Export Plug-In . SVG Version: 6.00 Build 0)  -->
<svg version="1.1" id="Слой_1" xmlns="http://www.w3.org/2000/svg" xmlns:xlink="http://www.w3.org/1999/xlink" x="0px" y="0px"
	 viewBox="0 0 400.08 400.08" style="enable-background:new 0 0 400.08 400.08;" xml:space="preserve">
<style type="text/css">
	.st0{fill:#FFFFFF;}
</style>
<g>
	<path class="st0" d="M131,196.08c0,9.07-2.87,16.93-8.6,23.6l7.2,7.5l-9.8,8.7l-7.6-7.9c-5.4,3-11.27,4.5-17.6,4.5
		c-10.07,0-18.63-3.52-25.7-10.55c-7.07-7.03-10.6-15.65-10.6-25.85s3.53-18.82,10.6-25.85c7.07-7.03,15.63-10.55,25.7-10.55
		c10.07,0,18.65,3.52,25.75,10.55C127.45,177.26,131,185.88,131,196.08z M94.6,218.98c2.6,0,5.2-0.43,7.8-1.3l-11.5-12l9.8-8.7
		l12.3,12.8c2.8-4,4.2-8.57,4.2-13.7c0-6.67-2.17-12.17-6.5-16.5c-4.33-4.33-9.7-6.5-16.1-6.5s-11.77,2.17-16.1,6.5
		c-4.33,4.33-6.5,9.83-6.5,16.5c0,6.6,2.17,12.07,6.5,16.4C82.83,216.81,88.2,218.98,94.6,218.98z"/>
	<path class="st0" d="M174.4,232.48c-10.53,0-19.23-3.5-26.1-10.5c-6.87-7-10.3-15.63-10.3-25.9c0-10.33,3.43-18.98,10.3-25.95
		c6.87-6.97,15.57-10.45,26.1-10.45c6.33,0,12.18,1.48,17.55,4.45c5.37,2.97,9.55,6.98,12.55,12.05l-11.9,6.9
		c-1.73-3.13-4.2-5.58-7.4-7.35c-3.2-1.77-6.8-2.65-10.8-2.65c-6.8,0-12.28,2.13-16.45,6.4c-4.17,4.27-6.25,9.8-6.25,16.6
		c0,6.73,2.08,12.23,6.25,16.5c4.17,4.27,9.65,6.4,16.45,6.4c4,0,7.62-0.88,10.85-2.65c3.23-1.77,5.68-4.18,7.35-7.25l11.9,6.9
		c-3,5.07-7.17,9.08-12.5,12.05C186.67,231,180.8,232.48,174.4,232.48z"/>
	<path class="st0" d="M213.2,231.08v-73h12.9v73H213.2z"/>
	<path class="st0" d="M275.9,181.08h12.9v50h-12.9v-5.9c-3.87,4.87-9.3,7.3-16.3,7.3c-6.67,0-12.38-2.55-17.15-7.65
		c-4.77-5.1-7.15-11.35-7.15-18.75s2.38-13.65,7.15-18.75c4.77-5.1,10.48-7.65,17.15-7.65c7,0,12.43,2.43,16.3,7.3V181.08z
		 M252.1,216.23c2.6,2.63,5.9,3.95,9.9,3.95s7.32-1.32,9.95-3.95c2.63-2.63,3.95-6.02,3.95-10.15c0-4.13-1.32-7.52-3.95-10.15
		c-2.63-2.63-5.95-3.95-9.95-3.95s-7.3,1.32-9.9,3.95c-2.6,2.63-3.9,6.02-3.9,10.15C248.2,210.21,249.5,213.6,252.1,216.23z"/>
	<path class="st0" d="M333.1,181.08h13.8l-18.2,50c-2.6,7.2-6.05,12.42-10.35,15.65c-4.3,3.23-9.65,4.68-16.05,4.35v-12
		c3.47,0.07,6.22-0.67,8.25-2.2c2.03-1.53,3.65-4,4.85-7.4l-20.5-48.4H309l13,33.6L333.1,181.08z"/>
</g>
</svg>
